# Blender v2.92.0 OBJ File: ''
# www.blender.org
mtllib ship.mtl
o ship_Cube.001
v -1.000026 0.418206 -0.689432
v -0.919518 0.312961 -0.746769
v -1.000016 0.250004 -0.781063
v -0.999974 -0.420028 -0.362637
v -1.304665 -0.512188 -0.736626
v -0.999974 -0.419999 -0.699604
v 0.599740 0.250104 -0.781063
v 0.000011 -0.175035 -0.781099
v -0.000016 0.250067 -0.781063
v 1.000016 -0.249913 -0.281105
v 0.000019 -0.304164 -0.000026
v 0.000019 -0.304140 -0.281110
v 0.999959 0.650063 0.000056
v 1.930621 0.249574 -0.173601
v 0.999959 0.650077 -0.173566
v -0.000027 0.429665 0.000037
v -0.999984 -0.249996 -0.781105
v -0.999984 -0.250063 -0.000021
v -0.999984 -0.250039 -0.281105
v -1.000016 0.249961 -0.281063
v -0.134347 0.418233 -0.372664
v -1.000026 0.418179 -0.372664
v -1.000016 0.249937 0.000021
v 0.599772 -0.249896 -0.781105
v 0.000019 -0.304097 -0.781110
v 0.929128 0.161566 -0.369594
v 0.999984 0.250087 -0.281063
v -0.000016 0.250024 -0.281063
v -0.134295 -0.419973 -0.362637
v 1.793828 0.013643 -0.281083
v -0.000027 0.429689 -0.281047
v 1.622837 -0.281280 -0.281108
v 1.622837 -0.281304 -0.000024
v 1.000016 -0.249937 -0.000021
v 2.236559 -0.304533 -0.173478
v 2.236559 -0.304548 -0.000026
v -0.134347 0.418261 -0.689432
v -1.304678 -0.304888 -0.226187
v -1.304665 -0.512223 -0.325630
v -0.134295 -0.419945 -0.699604
v -1.304678 -0.304836 -0.836034
v 2.378705 -0.059361 -0.173457
v 1.930621 0.249559 0.000021
v 2.378705 -0.059376 -0.000005
v -1.304716 0.305012 -0.835982
v -1.304729 0.510167 -0.724220
v -1.304729 0.510134 -0.337860
v -1.304716 0.304960 -0.226135
v -0.923807 -0.308951 -0.654999
v -0.923814 -0.183945 -0.714930
v -0.923807 -0.308972 -0.407221
v -0.923845 0.307398 -0.647521
v -0.923845 0.307378 -0.414596
v -0.923837 0.183684 -0.347239
v -0.923837 0.183715 -0.714898
v -0.923814 -0.183976 -0.347270
v -0.298701 -0.419988 -1.597631
v -0.272766 -0.514755 -2.414150
v 0.163503 -0.382325 -1.597628
v -1.138737 -0.514809 -2.414150
v -0.597421 -0.535878 -2.414152
v -0.298706 -0.330314 -1.597623
v -0.597425 -0.485594 -2.414147
v -1.331771 -0.382446 -1.275746
v -0.206424 0.319376 -0.735249
v -0.919520 0.355260 -0.723727
v -1.493853 0.791259 -1.568749
v -1.057114 0.791286 -1.568749
v 0.929148 -0.161386 -0.369622
v 0.739678 0.161554 -0.369594
v 0.670628 -0.161376 -0.692575
v 0.670608 0.161577 -0.692547
v 0.739698 -0.161398 -0.369622
v 0.481178 -0.161387 -0.692575
v 0.481158 0.161565 -0.692547
v -1.493855 0.813586 -1.556586
v -0.919518 0.312834 0.746823
v -1.000026 0.418090 0.689504
v -1.000016 0.249871 0.781105
v -1.304665 -0.512313 0.736538
v -0.999974 -0.420090 0.362565
v -0.999974 -0.420118 0.699532
v 0.000011 -0.175168 0.781069
v 0.599740 0.249971 0.781105
v -0.000016 0.249933 0.781105
v 1.000016 -0.249961 0.281063
v 0.000019 -0.304188 0.281058
v 1.930621 0.249544 0.173643
v 0.999959 0.650048 0.173678
v -0.000027 0.429641 0.281121
v -0.999984 -0.250087 0.281063
v -1.000016 0.249913 0.281105
v -0.134347 0.418170 0.372736
v -0.000016 0.249976 0.281105
v 0.599772 -0.250029 0.781063
v 0.000019 -0.304231 0.781058
v 0.999984 0.250039 0.281105
v 0.929148 -0.161449 0.369594
v -0.134295 -0.420035 0.362565
v 1.622837 -0.281328 0.281060
v 2.236559 -0.304563 0.173425
v 1.793828 0.013595 0.281085
v -0.134347 0.418144 0.689504
v -1.304678 -0.304926 0.226135
v -0.134295 -0.420064 0.699532
v -1.304678 -0.304978 0.835982
v -0.999984 -0.250129 0.781063
v 2.378705 -0.059391 0.173446
v -1.304716 0.304869 0.836034
v -1.304729 0.510076 0.337948
v -1.000026 0.418117 0.372736
v -1.304716 0.304921 0.226187
v -0.923807 -0.309063 0.654947
v -0.923807 -0.309042 0.407169
v -1.304665 -0.512278 0.325542
v -0.923845 0.307287 0.647573
v -1.304729 0.510043 0.724308
v -0.923845 0.307307 0.414647
v -0.923838 0.183593 0.714930
v -0.923837 0.183625 0.347270
v -0.272766 -0.515168 2.414062
v -0.298701 -0.420260 1.597559
v 0.163503 -0.382598 1.597562
v -1.138737 -0.515222 2.414062
v -1.331771 -0.382664 1.275680
v -0.298706 -0.330587 1.597567
v -0.597422 -0.536291 2.414060
v -0.597425 -0.486007 2.414064
v -0.206424 0.319250 0.735303
v -1.493854 0.790990 1.568884
v -0.919520 0.355137 0.723787
v -1.057115 0.791018 1.568884
v 0.739678 0.161491 0.369622
v 0.929128 0.161503 0.369622
v 0.670628 -0.161493 0.692547
v 0.739698 -0.161461 0.369594
v 0.481178 -0.161505 0.692547
v 0.670608 0.161459 0.692575
v 0.481158 0.161447 0.692575
v -1.493855 0.813320 1.556725
v -0.923815 -0.184067 0.714898
v -0.923814 -0.184035 0.347238
vt 0.705345 0.760948
vt 0.690522 0.739705
vt 0.704527 0.726566
vt 0.767722 0.221039
vt 0.815044 0.283276
vt 0.764755 0.286495
vt 0.409588 0.732986
vt 0.523655 0.654791
vt 0.525107 0.733502
vt 0.275665 0.479883
vt 0.463406 0.428123
vt 0.463573 0.479905
vt 0.303695 0.972630
vt 0.141493 0.897429
vt 0.307889 0.941974
vt 0.488799 0.972630
vt 0.702361 0.637050
vt 0.644307 0.426186
vt 0.645107 0.474575
vt 0.696123 0.859674
vt 0.557092 0.808864
vt 0.700752 0.823350
vt 0.679490 0.909457
vt 0.778029 0.958488
vt 0.682208 0.963324
vt 0.347250 0.572110
vt 0.459231 0.575931
vt 0.290589 0.637051
vt 0.310706 0.714783
vt 0.289117 0.731101
vt 0.522736 0.833340
vt 0.329139 0.827412
vt 0.494675 0.503653
vt 0.306527 0.868615
vt 0.158275 0.849037
vt 0.487243 0.927918
vt 0.177933 0.791053
vt 0.291587 0.778127
vt 0.159153 0.426717
vt 0.275908 0.427257
vt 0.044017 0.458661
vt 0.044167 0.426186
vt 0.066629 0.811834
vt 0.490923 0.885368
vt 0.561478 0.763182
vt 0.829425 0.201339
vt 0.821915 0.233638
vt 0.489513 0.557297
vt 0.643772 0.510628
vt 0.637213 0.575421
vt 0.817227 0.316012
vt 0.764173 0.322630
vt 0.632308 0.610617
vt 0.052358 0.861448
vt 0.131660 0.926287
vt 0.036263 0.803099
vt 0.021992 0.852714
vt 0.780846 0.460225
vt 0.831364 0.414296
vt 0.839747 0.451568
vt 0.859323 0.519907
vt 0.792951 0.524959
vt 0.817261 0.049455
vt 0.865056 0.101865
vt 0.804400 0.087914
vt 0.775787 0.183203
vt 0.772141 0.420336
vt 0.888631 0.289705
vt 0.892324 0.316952
vt 0.890566 0.241001
vt 0.912427 0.418608
vt 0.938288 0.463269
vt 0.945736 0.124401
vt 0.931572 0.150260
vt 0.907201 0.389595
vt 0.900172 0.216499
vt 0.058055 0.531686
vt 0.103171 0.531686
vt 0.114085 0.554447
vt 0.543628 0.179389
vt 0.539993 0.329785
vt 0.458936 0.179152
vt 0.696831 0.328623
vt 0.598682 0.328076
vt 0.195222 0.179691
vt 0.189562 0.027285
vt 0.248903 0.028081
vt 0.347590 0.026662
vt 0.384572 0.235003
vt 0.598666 0.337179
vt 0.570229 0.745616
vt 0.757682 0.684292
vt 0.792477 0.852725
vt 0.750409 0.685941
vt 0.974813 0.683297
vt 0.877495 0.828706
vt 0.879166 0.595452
vt 0.690626 0.748144
vt 0.488119 0.029331
vt 0.378222 0.028777
vt 0.670725 0.026819
vt 0.141481 0.331276
vt 0.110537 0.178123
vt 0.324029 0.328138
vt 0.692552 0.381300
vt 0.727048 0.440105
vt 0.692552 0.440105
vt 0.389471 0.655254
vt 0.311657 0.654036
vt 0.411061 0.638936
vt 0.388520 0.716001
vt 0.692111 0.547064
vt 0.727867 0.597677
vt 0.693371 0.597676
vt 0.692111 0.488260
vt 0.726607 0.547064
vt 0.726607 0.488260
vt 0.049140 0.757251
vt 0.124465 0.698447
vt 0.124465 0.757251
vt 0.862701 0.839435
vt 0.795441 0.848217
vt 0.690522 0.739705
vt 0.705345 0.760948
vt 0.704527 0.726566
vt 0.815044 0.283276
vt 0.767722 0.221039
vt 0.764755 0.286495
vt 0.523655 0.654791
vt 0.409588 0.732986
vt 0.525107 0.733502
vt 0.275665 0.479883
vt 0.463573 0.479905
vt 0.141493 0.897429
vt 0.307889 0.941974
vt 0.487243 0.927918
vt 0.645107 0.474575
vt 0.696123 0.859674
vt 0.557092 0.808864
vt 0.522736 0.833340
vt 0.679490 0.909457
vt 0.347250 0.572110
vt 0.459231 0.575931
vt 0.289117 0.731101
vt 0.311657 0.654036
vt 0.290589 0.637051
vt 0.494675 0.503653
vt 0.306527 0.868615
vt 0.177933 0.791053
vt 0.291587 0.778127
vt 0.044017 0.458661
vt 0.158910 0.479343
vt 0.066629 0.811834
vt 0.158275 0.849037
vt 0.490923 0.885368
vt 0.561478 0.763182
vt 0.829425 0.201339
vt 0.775787 0.183203
vt 0.643772 0.510628
vt 0.489513 0.557297
vt 0.637213 0.575421
vt 0.817227 0.316012
vt 0.764173 0.322630
vt 0.632308 0.610617
vt 0.052358 0.861448
vt 0.780846 0.460225
vt 0.831364 0.414296
vt 0.772141 0.420336
vt 0.859323 0.519907
vt 0.792951 0.524959
vt 0.865056 0.101865
vt 0.817261 0.049455
vt 0.804400 0.087914
vt 0.888631 0.289705
vt 0.890566 0.241001
vt 0.821915 0.233638
vt 0.912427 0.418608
vt 0.839747 0.451568
vt 0.938288 0.463269
vt 0.945736 0.124401
vt 0.883528 0.059471
vt 0.907201 0.389595
vt 0.931572 0.150260
vt 0.047140 0.621392
vt 0.059407 0.643914
vt 0.101819 0.643914
vt 0.539993 0.329785
vt 0.543628 0.179389
vt 0.458936 0.179152
vt 0.696831 0.328623
vt 0.731642 0.119827
vt 0.195222 0.179691
vt 0.189562 0.027285
vt 0.110537 0.178123
vt 0.347590 0.026662
vt 0.384572 0.235003
vt 0.598682 0.328076
vt 0.598666 0.337179
vt 0.570229 0.745616
vt 0.792477 0.852725
vt 0.757682 0.684292
vt 0.750409 0.685941
vt 0.877495 0.828706
vt 0.974813 0.683297
vt 0.879166 0.595452
vt 0.690626 0.748144
vt 0.488119 0.029331
vt 0.378222 0.028777
vt 0.670725 0.026819
vt 0.141481 0.331276
vt 0.031456 0.328920
vt 0.324029 0.328138
vt 0.727048 0.440105
vt 0.692552 0.381300
vt 0.692552 0.440105
vt 0.411061 0.638936
vt 0.389471 0.655254
vt 0.310706 0.714783
vt 0.727867 0.597677
vt 0.692111 0.547064
vt 0.693371 0.597676
vt 0.726607 0.547064
vt 0.692111 0.488260
vt 0.124465 0.698447
vt 0.049140 0.757251
vt 0.124465 0.757251
vt 0.862701 0.839435
vt 0.859822 0.589658
vt 0.795441 0.848217
vt 0.775311 0.904621
vt 0.158910 0.479343
vt 0.040911 0.890369
vt 0.883528 0.059471
vt 0.114085 0.621392
vt 0.047140 0.621392
vt 0.101819 0.643914
vt 0.059407 0.643914
vt 0.047140 0.554447
vt 0.731642 0.119827
vt 0.936571 0.881942
vt 0.031456 0.328920
vt 0.727048 0.381300
vt 0.049140 0.698447
vt 0.859822 0.589658
vt 0.702361 0.637050
vt 0.700752 0.823350
vt 0.775311 0.904621
vt 0.329139 0.827412
vt 0.892324 0.316952
vt 0.900172 0.216499
vt 0.114085 0.621392
vt 0.114085 0.554447
vt 0.103171 0.531686
vt 0.058055 0.531686
vt 0.047140 0.554447
vt 0.248903 0.028081
vt 0.936571 0.881942
vt 0.727048 0.381300
vt 0.388520 0.716001
vt 0.726607 0.488260
vt 0.049140 0.698447
vn -0.0000 0.4784 -0.8781
vn -0.0000 0.4784 -0.8782
vn 0.2896 -0.9571 -0.0001
vn -0.0000 0.0001 -1.0000
vn 0.0541 -0.9985 -0.0001
vn 0.3953 0.9186 0.0001
vn -0.2152 0.9766 0.0001
vn -0.0540 -0.9985 -0.0001
vn -0.0000 0.4782 0.8782
vn -1.0000 -0.0001 -0.0000
vn 0.0900 -0.9959 -0.0001
vn 0.7807 0.0001 -0.6249
vn -0.0001 1.0000 0.0001
vn -0.0299 -0.5519 0.8334
vn 0.1072 0.3600 -0.9268
vn 0.0465 0.2593 -0.9647
vn -0.0503 -0.9987 -0.0001
vn -0.0441 -0.9990 -0.0001
vn -0.0378 -0.9993 -0.0001
vn 0.1683 -0.0975 -0.9809
vn -0.1769 0.9842 0.0001
vn 0.7814 0.6240 0.0001
vn 0.2337 -0.4205 0.8767
vn 0.0001 -1.0000 -0.0001
vn 0.6531 -0.7573 -0.0001
vn 0.2337 -0.4203 -0.8768
vn 0.0000 -0.4323 -0.9017
vn 0.2089 0.3025 -0.9300
vn 0.5676 0.8233 0.0001
vn 0.8651 -0.5016 -0.0000
vn 0.2376 0.4647 -0.8530
vn 0.2889 0.9574 0.0001
vn 0.2376 0.4645 0.8531
vn 0.1774 -0.0001 0.9841
vn 0.1774 0.0001 -0.9841
vn -0.3903 0.3980 0.8302
vn -0.3903 0.3981 -0.8301
vn -0.4708 0.8822 0.0001
vn -0.3962 -0.4393 0.8063
vn -0.4699 -0.8827 -0.0001
vn -0.3962 -0.4391 -0.8063
vn -0.3030 -0.0001 0.9530
vn -0.3030 0.0001 -0.9530
vn 0.0806 -0.9905 0.1114
vn 0.0807 -0.9898 0.1174
vn 0.0876 -0.9896 0.1142
vn -0.0384 -0.9873 0.1542
vn 0.0873 0.9723 -0.2169
vn -0.0904 0.9874 -0.1301
vn -0.0000 0.5514 -0.8343
vn -0.8559 -0.2474 0.4541
vn 0.0159 -0.8630 -0.5049
vn -0.0476 0.4483 -0.8926
vn 0.0822 -0.9904 0.1113
vn 0.0894 -0.9896 0.1127
vn -0.0533 -0.9858 0.1594
vn 0.1110 0.9683 -0.2236
vn 0.1183 0.9683 -0.2199
vn 0.1086 0.9686 -0.2237
vn -0.1081 0.9760 -0.1888
vn -0.0000 -0.0001 1.0000
vn 0.0567 0.8910 0.4505
vn 0.0532 0.8909 0.4510
vn 0.0580 0.8910 0.4503
vn 0.7807 -0.0000 0.6249
vn -0.0299 -0.5518 -0.8335
vn 0.1110 0.2578 0.9598
vn 0.0465 0.2591 0.9647
vn -0.0382 -0.9993 -0.0001
vn 0.1683 -0.0977 0.9809
vn 0.2089 0.3024 0.9300
vn 0.0807 -0.9898 -0.1176
vn 0.0806 -0.9905 -0.1116
vn 0.0876 -0.9896 -0.1143
vn -0.0001 -0.9933 -0.1156
vn 0.1086 0.9686 0.2238
vn 0.1092 0.9703 0.2159
vn 0.1183 0.9683 0.2201
vn -0.0904 0.9873 0.1303
vn -0.0000 0.5512 0.8344
vn -0.8559 -0.2473 -0.4541
vn 0.0159 -0.8631 0.5047
vn -0.0476 0.4481 0.8927
vn 0.0822 -0.9904 -0.1115
vn 0.0894 -0.9896 -0.1129
vn -0.0533 -0.9857 -0.1596
vn 0.1110 0.9683 0.2238
vn 0.1208 0.9676 0.2216
vn -0.0738 0.9843 0.1604
vn 0.0567 0.8911 -0.4503
vn 0.0533 0.8910 -0.4509
vn 0.0521 0.8910 -0.4511
vn 0.0541 -0.9976 -0.0433
vn 0.0000 -0.4325 0.9017
vn 0.1110 0.2579 -0.9598
vn 0.0645 -0.9910 0.1171
vn -0.0001 -0.9933 0.1155
vn 0.1092 0.9703 -0.2157
vn -0.0531 0.9844 -0.1678
vn 0.0101 0.4684 -0.8835
vn 0.0001 -0.8643 -0.5030
vn 0.0063 0.4166 -0.9091
vn 0.0378 -0.9713 0.2347
vn 0.1208 0.9677 -0.2215
vn -0.0738 0.9843 -0.1602
vn 0.0521 0.8909 0.4512
vn 0.0541 -0.9976 0.0432
vn 0.1072 0.3599 0.9268
vn 0.0645 -0.9910 -0.1172
vn -0.0384 -0.9873 -0.1544
vn 0.0873 0.9723 0.2170
vn -0.0531 0.9844 0.1679
vn 0.0101 0.4682 0.8836
vn 0.0001 -0.8644 0.5028
vn 0.0063 0.4165 0.9091
vn 0.0378 -0.9713 -0.2349
vn -0.1081 0.9760 0.1890
vn 0.0580 0.8911 -0.4501
usemtl Material.001
s 1
f 1/1/1 2/2/2 3/3/2
f 4/4/3 5/5/3 6/6/3
f 7/7/4 8/8/4 9/9/4
f 10/10/5 11/11/5 12/12/5
f 13/13/6 14/14/6 15/15/6
f 15/15/7 16/16/7 13/13/7
f 3/3/4 8/8/4 17/17/4
f 12/12/8 18/18/8 19/19/8
f 20/20/9 21/21/9 22/22/9
f 20/23/10 18/24/10 23/25/10
f 24/26/11 12/12/11 25/27/11
f 10/28/12 26/29/12 27/30/12
f 7/7/13 28/31/13 27/32/13
f 19/19/14 29/33/14 12/12/14
f 27/34/15 14/14/15 30/35/15
f 27/34/16 31/36/16 15/15/16
f 27/34/4 32/37/4 10/38/4
f 10/10/17 33/39/18 34/40/17
f 33/39/18 35/41/19 36/42/19
f 30/35/20 35/43/20 32/37/20
f 23/25/21 31/36/21 20/23/21
f 28/44/4 20/23/4 31/36/4
f 9/9/22 21/21/22 28/31/22
f 1/1/13 21/21/13 37/45/13
f 4/4/23 38/46/23 39/47/23
f 40/48/24 4/49/24 6/50/24
f 12/12/25 40/48/25 25/27/25
f 6/6/26 41/51/26 17/52/26
f 17/53/27 40/48/27 6/50/27
f 30/35/28 14/14/28 42/54/28
f 43/55/29 42/54/29 14/14/29
f 36/56/30 42/54/30 44/57/30
f 1/58/31 45/59/31 46/60/31
f 1/58/32 47/61/32 22/62/32
f 22/63/33 48/64/33 20/65/33
f 20/65/34 38/46/34 19/66/34
f 3/67/35 41/51/35 45/59/35
f 41/51/36 49/68/36 50/69/36
f 38/46/37 51/70/37 39/47/37
f 39/47/38 49/68/38 5/5/38
f 45/59/39 52/71/39 46/60/39
f 46/60/40 53/72/40 47/61/40
f 48/64/41 53/73/41 54/74/41
f 41/51/42 55/75/42 45/59/42
f 38/46/43 54/74/43 56/76/43
f 49/77/10 51/78/10 56/79/10
f 57/80/44 58/81/45 59/82/46
f 57/80/47 60/83/47 61/84/47
f 62/85/48 58/86/48 63/87/48
f 62/85/49 60/88/49 64/89/49
f 61/84/4 63/90/4 58/81/4
f 3/3/50 65/91/50 9/9/50
f 66/92/51 67/93/51 2/94/51
f 2/95/52 68/96/52 65/97/52
f 37/45/53 9/9/53 65/91/53
f 37/45/1 66/98/1 1/1/1
f 25/99/54 59/82/46 24/100/55
f 17/101/56 57/80/56 25/99/56
f 8/102/57 59/103/58 62/85/59
f 17/104/60 62/85/60 64/89/60
f 69/105/4 70/106/4 26/107/4
f 10/28/12 71/108/12 69/109/12
f 7/7/12 71/108/12 24/110/12
f 27/30/12 72/111/12 7/7/12
f 71/112/13 73/113/13 69/114/13
f 72/115/61 74/116/61 71/112/61
f 72/115/24 70/106/24 75/117/24
f 70/118/12 74/119/12 75/120/12
f 66/92/62 68/121/63 76/122/64
f 67/93/1 76/122/1 68/121/1
f 77/123/9 78/124/9 79/125/9
f 80/126/3 81/127/3 82/128/3
f 83/129/61 84/130/61 85/131/61
f 11/11/5 86/132/5 87/133/5
f 88/134/6 13/13/6 89/135/6
f 89/135/7 16/16/7 90/136/7
f 79/125/61 83/129/61 85/131/61
f 18/18/8 87/133/8 91/137/8
f 92/138/2 93/139/2 94/140/2
f 18/24/10 92/141/10 23/25/10
f 87/133/11 95/142/11 96/143/11
f 97/144/65 98/145/65 86/146/65
f 84/130/13 94/140/13 85/131/13
f 99/147/66 91/137/66 87/133/66
f 97/148/67 88/134/67 89/135/67
f 90/136/68 97/148/68 89/135/68
f 100/149/61 97/148/61 86/150/61
f 33/39/18 86/132/17 34/40/17
f 33/39/18 101/151/19 100/152/69
f 101/153/70 102/154/70 100/149/70
f 90/136/21 23/25/21 92/141/21
f 94/155/61 90/136/61 92/141/61
f 93/139/22 85/131/22 94/140/22
f 93/139/13 78/124/13 103/156/13
f 81/127/26 104/157/26 91/158/26
f 81/159/24 105/160/24 82/161/24
f 105/160/25 87/133/25 96/143/25
f 106/162/23 82/128/23 107/163/23
f 107/164/14 105/160/14 96/143/14
f 102/154/71 108/165/71 88/134/71
f 108/165/29 43/55/29 88/134/29
f 108/165/30 36/56/30 44/57/30
f 78/166/33 109/167/33 79/168/33
f 110/169/32 78/166/32 111/170/32
f 112/171/31 111/172/31 92/173/31
f 104/157/35 92/173/35 91/158/35
f 79/168/34 106/162/34 107/163/34
f 106/162/37 113/174/37 80/126/37
f 114/175/36 104/157/36 115/176/36
f 113/174/38 115/176/38 80/126/38
f 116/177/41 109/167/41 117/178/41
f 118/179/40 117/178/40 110/169/40
f 112/171/39 118/180/39 110/181/39
f 119/182/43 106/162/43 109/167/43
f 104/157/42 120/183/42 112/171/42
f 119/184/10 116/185/10 118/186/10
f 121/187/72 122/188/73 123/189/74
f 122/188/75 124/190/75 125/191/75
f 126/192/76 121/193/77 123/194/78
f 124/195/79 126/192/79 125/196/79
f 127/197/61 128/198/61 124/190/61
f 129/199/80 79/125/80 85/131/80
f 130/200/81 131/201/81 77/202/81
f 132/203/82 77/204/82 129/205/82
f 103/156/83 129/199/83 85/131/83
f 131/206/9 103/156/9 78/124/9
f 123/189/74 96/207/84 95/208/85
f 122/188/86 107/209/86 96/207/86
f 83/210/87 123/194/78 95/211/88
f 107/212/89 126/192/89 83/210/89
f 133/213/61 98/214/61 134/215/61
f 98/145/65 95/216/65 86/146/65
f 135/217/65 84/130/65 95/216/65
f 84/130/65 134/218/65 97/144/65
f 136/219/13 135/220/13 98/221/13
f 137/222/4 138/223/4 135/220/4
f 138/223/24 133/213/24 134/215/24
f 137/224/65 133/225/65 139/226/65
f 131/201/90 132/227/91 129/228/92
f 130/200/9 132/227/9 140/229/9
f 1/1/1 66/98/1 2/2/2
f 4/4/3 39/47/3 5/5/3
f 7/7/4 24/110/4 8/8/4
f 10/10/5 34/40/5 11/11/5
f 13/13/6 43/55/6 14/14/6
f 15/15/7 31/36/7 16/16/7
f 3/3/4 9/9/4 8/8/4
f 12/12/8 11/11/8 18/18/8
f 20/20/9 28/31/9 21/21/9
f 20/23/10 19/230/10 18/24/10
f 24/26/93 10/10/93 12/12/93
f 10/28/12 69/109/12 26/29/12
f 7/7/13 9/9/13 28/31/13
f 19/19/94 4/49/94 29/33/94
f 27/34/95 15/15/95 14/14/95
f 27/34/4 28/44/4 31/36/4
f 27/34/4 30/35/4 32/37/4
f 10/10/17 32/231/69 33/39/18
f 33/39/18 32/231/69 35/41/19
f 30/35/20 42/54/20 35/43/20
f 23/25/21 16/16/21 31/36/21
f 9/9/22 37/45/22 21/21/22
f 1/1/13 22/22/13 21/21/13
f 4/4/23 19/66/23 38/46/23
f 40/48/24 29/33/24 4/49/24
f 12/12/25 29/33/25 40/48/25
f 6/6/26 5/5/26 41/51/26
f 17/53/66 25/27/66 40/48/66
f 43/55/29 44/232/29 42/54/29
f 36/56/30 35/43/30 42/54/30
f 1/58/31 3/67/31 45/59/31
f 1/58/32 46/60/32 47/61/32
f 22/63/33 47/233/33 48/64/33
f 20/65/34 48/64/34 38/46/34
f 3/67/35 17/52/35 41/51/35
f 41/51/36 5/5/36 49/68/36
f 38/46/37 56/76/37 51/70/37
f 39/47/38 51/70/38 49/68/38
f 45/59/39 55/75/39 52/71/39
f 46/60/40 52/71/40 53/72/40
f 48/64/41 47/233/41 53/73/41
f 41/51/42 50/69/42 55/75/42
f 38/46/43 48/64/43 54/74/43
f 56/79/10 54/234/10 55/235/10
f 54/234/10 53/236/10 55/235/10
f 53/236/10 52/237/10 55/235/10
f 55/235/10 50/238/10 56/79/10
f 50/238/10 49/77/10 56/79/10
f 57/80/96 61/84/96 58/81/96
f 57/80/97 64/239/97 60/83/97
f 62/85/59 59/103/58 58/86/98
f 62/85/99 63/87/99 60/88/99
f 61/84/4 60/83/4 63/90/4
f 3/3/100 2/2/100 65/91/100
f 66/92/51 76/122/51 67/93/51
f 2/95/101 67/240/101 68/96/101
f 37/45/102 65/91/102 66/98/102
f 25/99/54 57/80/44 59/82/46
f 17/101/103 64/239/103 57/80/103
f 8/102/57 24/241/104 59/103/58
f 17/104/105 8/102/105 62/85/105
f 69/105/4 73/242/4 70/106/4
f 10/28/12 24/110/12 71/108/12
f 7/7/12 72/111/12 71/108/12
f 27/30/12 26/29/12 72/111/12
f 71/112/13 74/116/13 73/113/13
f 72/115/61 75/117/61 74/116/61
f 72/115/24 26/107/24 70/106/24
f 70/118/12 73/243/12 74/119/12
f 66/92/62 65/244/106 68/121/63
f 77/123/9 131/206/9 78/124/9
f 80/126/3 115/176/3 81/127/3
f 83/129/61 95/216/61 84/130/61
f 11/11/5 34/40/5 86/132/5
f 88/134/6 43/55/6 13/13/6
f 89/135/7 13/13/7 16/16/7
f 79/125/61 107/245/61 83/129/61
f 18/18/8 11/11/8 87/133/8
f 92/138/2 111/246/2 93/139/2
f 18/24/10 91/247/10 92/141/10
f 87/133/107 86/132/107 95/142/107
f 97/144/65 134/218/65 98/145/65
f 84/130/13 97/248/13 94/140/13
f 99/147/27 81/159/27 91/137/27
f 97/148/108 102/154/108 88/134/108
f 90/136/61 94/155/61 97/148/61
f 100/149/61 102/154/61 97/148/61
f 33/39/18 100/152/69 86/132/17
f 33/39/18 36/42/19 101/151/19
f 101/153/70 108/165/70 102/154/70
f 90/136/21 16/16/21 23/25/21
f 93/139/22 103/156/22 85/131/22
f 93/139/13 111/246/13 78/124/13
f 81/127/26 115/176/26 104/157/26
f 81/159/24 99/147/24 105/160/24
f 105/160/25 99/147/25 87/133/25
f 106/162/23 80/126/23 82/128/23
f 107/164/94 82/161/94 105/160/94
f 108/165/29 44/232/29 43/55/29
f 108/165/30 101/153/30 36/56/30
f 78/166/33 117/178/33 109/167/33
f 110/169/32 117/178/32 78/166/32
f 112/171/31 110/181/31 111/172/31
f 104/157/35 112/171/35 92/173/35
f 79/168/34 109/167/34 106/162/34
f 106/162/37 141/249/37 113/174/37
f 114/175/36 142/250/36 104/157/36
f 113/174/38 114/175/38 115/176/38
f 116/177/41 119/182/41 109/167/41
f 118/179/40 116/177/40 117/178/40
f 112/171/39 120/183/39 118/180/39
f 119/182/43 141/249/43 106/162/43
f 104/157/42 142/250/42 120/183/42
f 118/186/10 120/251/10 119/184/10
f 120/251/10 142/252/10 119/184/10
f 142/252/10 114/253/10 113/254/10
f 113/254/10 141/255/10 142/252/10
f 141/255/10 119/184/10 142/252/10
f 121/187/109 127/197/109 122/188/109
f 122/188/110 127/197/110 124/190/110
f 126/192/111 128/256/111 121/193/111
f 124/195/112 128/256/112 126/192/112
f 127/197/61 121/187/61 128/198/61
f 129/199/113 77/123/113 79/125/113
f 130/200/81 140/229/81 131/201/81
f 132/203/114 130/257/114 77/204/114
f 131/206/115 129/199/115 103/156/115
f 123/189/74 122/188/73 96/207/84
f 122/188/116 125/191/116 107/209/116
f 83/210/87 126/192/76 123/194/78
f 107/212/117 125/196/117 126/192/117
f 133/213/61 136/258/61 98/214/61
f 98/145/65 135/217/65 95/216/65
f 135/217/65 138/259/65 84/130/65
f 84/130/65 138/259/65 134/218/65
f 136/219/13 137/222/13 135/220/13
f 137/222/4 139/260/4 138/223/4
f 138/223/24 139/260/24 133/213/24
f 137/224/65 136/261/65 133/225/65
f 131/201/90 140/229/118 132/227/91
